<svg id="Capa_1" enable-background="new 0 0 512 512" height="512" viewBox="0 0 512 512" width="512" xmlns="http://www.w3.org/2000/svg"><g><path d="m512 491.4v20.6h-146.29l-109.71-15-109.71 15h-146.29v-20.6c0-49.19 37.33-90.36 86.29-95.15l59.89-5.86h219.64l59.89 5.86c48.96 4.79 86.29 45.96 86.29 95.15z" fill="#324d75"/><path d="m512 491.4v20.6h-146.29l-109.71-15v-106.61h109.82l59.89 5.86c48.96 4.79 86.29 45.96 86.29 95.15z" fill="#213e68"/><path d="m410.57 472.04-44.86 39.96h-43.5l-66.21-15-66.21 15h-43.5l-44.86-39.96 44.75-81.65 36.68-3.59h146.28l36.68 3.59z" fill="#39648e"/><path d="m410.57 472.04-44.86 39.96h-43.5l-66.21-15v-110.2h73.14l36.68 3.59z" fill="#324d75"/><path d="m329.14 386.61-6.93 125.39h-132.42l-6.93-125.39z" fill="#f0f7ff"/><path d="m329.14 386.61-6.93 125.39h-66.21v-125.39z" fill="#d7e9fc"/><path d="m176.051 250.689h-34.303c-25.684 0-46.506-20.821-46.506-46.506 0-25.684 20.821-46.506 46.506-46.506h34.283z" fill="#fecec1"/><path d="m335.969 250.689h34.283c25.684 0 46.506-20.821 46.506-46.506 0-25.684-20.821-46.506-46.506-46.506h-34.283z" fill="#f7ad9e"/><path d="m329.14 314.08v72.53l-73.14 62.87-73.14-62.87v-72.53z" fill="#fecec1"/><path d="m329.14 314.08v72.53l-73.14 62.87v-135.4z" fill="#f7ad9e"/><path d="m382.03 105.51v20.11c0 17.7-14.36 32.06-32.06 32.06h-187.94c-17.7 0-32.06-14.36-32.06-32.06v-45.6c0-22.1 8.96-42.1 23.44-56.58 14.48-14.48 34.49-23.44 56.58-23.44 0 14.08 11.42 25.49 25.5 25.49h66.52c44.19 0 80.02 35.83 80.02 80.02z" fill="#324d75"/><path d="m382.03 105.51v20.11c0 17.7-14.36 32.06-32.06 32.06h-93.97v-132.19h46.01c44.19 0 80.02 35.83 80.02 80.02z" fill="#213e68"/><path d="m349.97 143.73v107.49c0 55.24-42.07 100.03-93.97 100.03-25.95 0-49.44-11.2-66.45-29.3-17-18.1-27.52-43.11-27.52-70.73v-109.62c0-17.61 14.28-31.89 31.89-31.89h122.04c18.128-.088 33.848 14.914 34.01 34.02z" fill="#fedfd0"/><path d="m349.97 143.73v107.49c0 55.24-42.07 100.03-93.97 100.03v-241.54h59.96c18.128-.088 33.848 14.914 34.01 34.02z" fill="#fecec1"/></g></svg>