<svg height="423pt" viewBox="-25 0 423 423.25333" width="423pt" xmlns="http://www.w3.org/2000/svg"><path d="m307.328125 167.253906c0 84.832032-68.769531 153.597656-153.601563 153.597656-84.832031 0-153.601562-68.765624-153.601562-153.597656 0-84.832031 68.769531-153.601562 153.601562-153.601562 84.832032 0 153.601563 68.769531 153.601563 153.601562zm0 0" fill="#efefd2"/><path d="m198.695312 273.066406s-41.871093-94.53125-8.777343-198.140625c4.179687-13.09375 18.335937-20.25 31.375-15.90625 10.90625 3.636719 17.859375 14.285157 16.726562 25.722657-3.480469 35.089843-8.761719 112.511718 2.21875 188.324218zm0 0" fill="#a9ba5a"/><path d="m240.242188 279.894531h-41.546876c-2.703124 0-5.148437-1.59375-6.242187-4.066406-1.75-3.953125-42.539063-98.109375-9.039063-202.980469 2.582032-8.074218 8.179688-14.640625 15.757813-18.492187 7.59375-3.855469 16.207031-4.496094 24.28125-1.8125 14.035156 4.679687 22.8125 18.195312 21.363281 32.875-3.773437 38.039062-8.507812 112.871093 2.179688 186.667969.285156 1.964843-.296875 3.949218-1.597656 5.445312-1.292969 1.5-3.175782 2.363281-5.15625 2.363281zm-36.933594-13.65625h29.097656c-9.484375-72.644531-4.878906-144.84375-1.179688-182.167969.820313-8.285156-4.152343-15.925781-12.09375-18.574218-4.558593-1.527344-9.453124-1.164063-13.777343 1.03125-4.300781 2.183594-7.472657 5.90625-8.941407 10.480468-28.085937 87.929688-.367187 170.28125 6.894532 189.230469zm0 0" fill="#4c241d"/><path d="m191.273438 259.414062h-40.960938v-232.105468c0-11.3125 9.171875-20.480469 20.480469-20.480469 11.308593 0 20.480469 9.167969 20.480469 20.480469zm0 0" fill="#a9ba5a"/><path d="m191.273438 266.238281h-40.960938c-3.773438 0-6.824219-3.054687-6.824219-6.824219v-232.105468c0-15.058594 12.246094-27.308594 27.304688-27.308594 15.058593 0 27.308593 12.25 27.308593 27.308594v232.105468c0 3.769532-3.054687 6.824219-6.828124 6.824219zm-34.132813-13.652343h27.304687v-225.277344c0-7.53125-6.125-13.65625-13.652343-13.65625-7.527344 0-13.652344 6.125-13.652344 13.65625zm0 0" fill="#4c241d"/><path d="m259.539062 273.066406h-40.960937c14.71875-78.183594 18.519531-155.359375 4.523437-230.898437-2.089843-11.289063 6.5625-21.6875 18.042969-21.6875 10.160157 0 18.398438 8.234375 18.398438 18.398437v234.1875zm0 0" fill="#a9ba5a"/><path d="m259.539062 279.894531h-40.960937c-2.03125 0-3.957031-.902343-5.25-2.472656-1.300781-1.5625-1.835937-3.621094-1.457031-5.617187 15.882812-84.390626 17.363281-159.101563 4.515625-228.394532-1.367188-7.382812.605469-14.921875 5.398437-20.6875 4.796875-5.761718 11.847656-9.066406 19.355469-9.066406 13.914063 0 25.226563 11.316406 25.226563 25.222656v234.1875c0 3.769532-3.054688 6.828125-6.828126 6.828125zm-32.765624-13.65625h25.941406v-227.363281c0-6.378906-5.195313-11.566406-11.574219-11.566406-3.433594 0-6.667969 1.511718-8.859375 4.144531-2.191406 2.640625-3.09375 6.089844-2.464844 9.472656 12.738282 68.746094 11.75 142.53125-3.042968 225.3125zm0 0" fill="#4c241d"/><path d="m185.042969 259.414062s-62.113281-124.21875-9.859375-207.953124c5.164062-8.273438 15.535156-11.734376 24.785156-8.652344 12.535156 4.179687 18.210938 18.484375 12.125 30.207031-15.664062 30.160156-32.558594 92.292969 14.492188 186.398437zm0 0" fill="#a9ba5a"/><path d="m226.585938 266.238281h-41.546876c-2.585937 0-4.945312-1.457031-6.105468-3.773437-2.605469-5.210938-63.199219-128.628906-9.539063-214.617188 6.824219-10.9375 20.300781-15.660156 32.734375-11.515625 7.824219 2.609375 14.085938 8.480469 17.179688 16.101563 3.105468 7.675781 2.683594 16.328125-1.15625 23.730468-14.378906 27.679688-31.613282 87.894532 14.542968 180.195313 1.058594 2.117187.945313 4.632813-.300781 6.644531-1.246093 2.007813-3.441406 3.234375-5.808593 3.234375zm-37.207032-13.652343h26.34375c-42.816406-92.214844-24.726562-153.753907-9.6875-182.714844 2-3.851563 2.226563-8.34375.613282-12.3125-1.609376-3.96875-4.746094-6.910156-8.84375-8.273438-6.332032-2.125-13.425782.316406-16.824219 5.789063-44.640625 71.527343-1.171875 176.390625 8.398437 197.511719zm0 0" fill="#4c241d"/><path d="m320.980469 273.066406h-40.960938v-232.105468c0-11.3125 9.171875-20.480469 20.480469-20.480469s20.480469 9.167969 20.480469 20.480469zm0 0" fill="#a9ba5a"/><path d="m320.980469 279.894531h-40.960938c-3.773437 0-6.828125-3.058593-6.828125-6.828125v-232.105468c0-15.058594 12.25-27.308594 27.308594-27.308594s27.308594 12.25 27.308594 27.308594v232.105468c0 3.769532-3.054688 6.828125-6.828125 6.828125zm-34.132813-13.65625h27.304688v-225.277343c0-7.53125-6.125-13.652344-13.652344-13.652344s-13.652344 6.121094-13.652344 13.652344zm0 0" fill="#4c241d"/><path d="m265.773438 259.414062s62.109374-124.21875 9.855468-207.953124c-5.160156-8.273438-15.53125-11.734376-24.785156-8.652344-12.53125 4.179687-18.210938 18.484375-12.121094 30.207031 15.660156 30.160156 32.554688 92.289063-14.496094 186.394531h41.546876zm0 0" fill="#a9ba5a"/><path d="m265.773438 266.238281h-41.546876c-2.367187 0-4.558593-1.226562-5.804687-3.234375-1.246094-2.011718-1.359375-4.527344-.300781-6.644531 46.152344-92.300781 28.917968-152.515625 14.539062-180.195313-3.839844-7.402343-4.257812-16.054687-1.152344-23.730468 3.09375-7.621094 9.351563-13.488282 17.179688-16.101563 12.445312-4.144531 25.914062.578125 32.734375 11.515625 53.660156 85.988282-6.933594 209.40625-9.539063 214.617188-1.164062 2.316406-3.523437 3.773437-6.109374 3.773437zm-30.679688-13.652343h26.339844c9.574218-21.121094 53.039062-125.984376 8.402344-197.511719-3.402344-5.46875-10.492188-7.914063-16.828126-5.789063-4.09375 1.367188-7.230468 4.304688-8.839843 8.277344-1.613281 3.96875-1.386719 8.457031.613281 12.308594 15.039062 28.960937 33.125 90.5-9.6875 182.714844zm0 0" fill="#4c241d"/><path d="m143.496094 259.414062s-55.730469-133.753906-47.195313-201.269531c1.460938-11.570312 11.136719-20.308593 22.796875-20.308593 12.523438 0 22.75 9.96875 22.871094 22.488281.28125 29.523437 6.96875 90.773437 43.074219 199.089843zm0 0" fill="#a9ba5a"/><path d="m185.039062 266.238281h-41.546874c-2.75 0-5.238282-1.65625-6.296876-4.199219-2.308593-5.527343-56.328124-136.21875-47.667968-204.753906 1.890625-14.980468 14.605468-26.273437 29.574218-26.273437 16.21875 0 29.539063 13.121093 29.691407 29.25.253906 26.453125 6.132812 87.214843 42.71875 196.992187.699219 2.085938.347656 4.371094-.933594 6.152344-1.285156 1.78125-3.34375 2.832031-5.539063 2.832031zm-36.945312-13.652343h27.507812c-32.792968-100.496094-40.152343-159.859376-40.460937-192.195313-.078125-8.671875-7.28125-15.726563-16.039063-15.726563-8.105468 0-14.992187 6.164063-16.027343 14.332032-7.382813 58.386718 35.800781 170.519531 45.019531 193.589844zm0 0" fill="#4c241d"/><path d="m268.328125 252.585938s48.007813-84.007813 54.636719-173.820313c.839844-11.324219 10.265625-20.058594 21.621094-20.058594 12.175781 0 21.96875 9.902344 21.792968 22.078125-.46875 31.796875-8.613281 95.175782-56.503906 171.800782zm0 0" fill="#a9ba5a"/><path d="m309.871094 259.414062h-41.546875c-2.433594 0-4.679688-1.296874-5.898438-3.402343-1.226562-2.101563-1.234375-4.699219-.027343-6.8125.472656-.824219 47.320312-83.777344 53.761718-170.933594 1.085938-14.792969 13.570313-26.382813 28.425782-26.382813 7.746093 0 14.992187 3.023438 20.414062 8.523438 5.40625 5.488281 8.316406 12.761719 8.207031 20.476562-.472656 31.855469-8.582031 96.984376-57.546875 175.320313-1.246094 1.996094-3.433594 3.210937-5.789062 3.210937zm-30.144532-13.652343h26.347657c45.433593-74.085938 53.03125-135.082031 53.480469-165.078125.058593-4.039063-1.460938-7.835938-4.28125-10.695313-2.832032-2.875-6.625-4.457031-10.6875-4.457031-7.738282 0-14.246094 6.035156-14.8125 13.734375-5.394532 73.039063-37.074219 141.234375-50.046876 166.496094zm0 0" fill="#4c241d"/><path d="m225.40625 416.425781c-71.429688 0-129.335938-57.90625-129.335938-129.332031v-54.988281h258.671876v54.988281c0 71.425781-57.90625 129.332031-129.335938 129.332031zm0 0" fill="#fff"/><g fill="#4c241d"><path d="m225.40625 423.253906c-75.078125 0-136.160156-61.082031-136.160156-136.160156v-54.988281c0-3.769531 3.054687-6.824219 6.828125-6.824219h258.667969c3.773437 0 6.824218 3.054688 6.824218 6.824219v54.988281c0 75.078125-61.078125 136.160156-136.160156 136.160156zm-122.503906-184.320312v48.160156c0 67.550781 54.949218 122.507812 122.503906 122.507812s122.507812-54.957031 122.507812-122.507812v-48.160156zm0 0"/><path d="m263.171875 381.375c-2.636719 0-5.15625-1.546875-6.265625-4.132812-1.492188-3.460938.105469-7.480469 3.566406-8.96875 19.746094-8.503907 35.734375-23.871094 45.019532-43.269532 1.628906-3.402344 5.714843-4.84375 9.109374-3.210937 3.398438 1.625 4.839844 5.703125 3.210938 9.101562-10.71875 22.378907-29.160156 40.109375-51.9375 49.917969-.878906.378906-1.796875.5625-2.703125.5625zm0 0"/></g></svg>