<svg height="479pt" viewBox="-95 0 479 479.984" width="479pt" xmlns="http://www.w3.org/2000/svg"><path d="m288.636719 263.992188c0-4.40625-3.570313-7.976563-7.96875-7.992188l-.023438-.023438h-272.113281l-.023438.015626c-3.902343.007812-7.007812 2.871093-7.695312 6.582031l-.289062.242187v137.160156c0 35.359376 28.5625 64 64 64h160c35.359374 0 64-28.640624 64-64h.082031v-135.824218c0-.054688.03125-.105469.03125-.160156zm0 0" fill="#da4453"/><path d="m184.386719 36.625c-1.710938-20.535156-19.214844-36.625-39.855469-36.625-20.65625 0-38.167969 16.089844-39.847656 36.617188-.046875.574218-.289063 1.085937-.457032 1.613281 8.472657 2.753906 16.546876 6.363281 24.136719 10.808593 0 0 .089844-.078124.089844 0 5.589844 3.199219 10.949219 6.882813 16 10.882813v.078125c5.039063-4.078125 10.398437-7.761719 16.078125-11.039062 7.640625-4.417969 15.777344-8.023438 24.304688-10.785157-.160157-.511719-.40625-.992187-.449219-1.550781zm0 0" fill="#8cc152"/><path d="m160.515625 48.960938c2.59375-1.503907 5.320313-2.777344 8.023437-4.082032v-4.886718c0-13.238282-10.773437-24.015626-24.015624-24.015626-13.238282 0-24.015626 10.777344-24.015626 24.015626v5.007812c2.640626 1.304688 5.304688 2.550781 7.839844 4.039062 0 0 .089844-.078124.089844 0 2.75 1.578126 5.4375 3.273438 8.070312 5.058594v-14.105468c0-4.425782 3.59375-8.015626 8.015626-8.015626 4.425781 0 8.015624 3.589844 8.015624 8.015626v14c2.585938-1.769532 5.242188-3.457032 7.976563-5.03125zm0 0" fill="#a0d468"/><path d="m80.53125 32.207031v82.753907c0 .726562-.230469 1.382812-.414062 2.054687 9.238281 2.417969 18.285156 5.335937 26.808593 9.214844 1.597657-8 4-15.765625 7.039063-23.125 4.167968-10.082031 9.597656-19.511719 16.078125-28.082031 4.863281-6.496094 10.496093-12.253907 16.472656-17.65625-19.191406-15-41.832031-23.589844-65.984375-25.160157zm0 0" fill="#8cc152"/><path d="m134.890625 68.585938c-15.957031-11.945313-34.605469-18.898438-54.359375-20.386719v16.066406c16.257812 1.445313 31.601562 7.269531 44.769531 17.132813.054688.042968.121094.050781.167969.089843 1.464844-2.191406 2.984375-4.351562 4.566406-6.457031 1.609375-2.144531 3.410156-4.101562 5.167969-6.101562-.128906-.105469-.183594-.25-.3125-.34375zm0 0" fill="#a0d468"/><path d="m80.53125 80.382812v16.210938c10.433594 1.503906 20.304688 5.773438 28.375 12.644531.722656.617188 1.523438 1.066407 2.363281 1.378907.863281-2.519532 1.6875-5.074219 2.695313-7.503907 1.054687-2.554687 2.191406-5.066406 3.40625-7.519531-10.625-8.449219-23.390625-13.714844-36.839844-15.210938zm0 0" fill="#a0d468"/><path d="m208.515625 114.960938v-82.730469c-53.449219 3.585937-98.902344 42.640625-109.695313 95.609375-.160156.777344-.488281 1.464844-.832031 2.128906 7.894531 4.128906 15.519531 8.664062 22.601563 14.023438 5.597656 4.078124 10.878906 8.640624 15.839844 13.519531 5.117187-5.046875 10.636718-9.769531 16.476562-14.085938 16.480469-12.265625 35.449219-21.394531 55.976562-26.632812-.144531-.609375-.367187-1.183594-.367187-1.832031zm0 0" fill="#a0d468"/><path d="m208.515625 64.335938v-16.007813c-48.769531 3.808594-89.105469 41.945313-95.199219 90.71875 2.449219 1.609375 4.925782 3.167969 7.273438 4.945313 2.125 1.542968 4.15625 3.214843 6.183594 4.894531 1.023437-1.214844 1.789062-2.679688 1.925781-4.382813 3.578125-42.519531 37.9375-76.304687 79.816406-80.167968zm0 0" fill="#8cc152"/><path d="m145.027344 142.425781c-.296875 2.214844.359375 4.335938 1.640625 5.972657 2.054687-1.6875 4.105469-3.382813 6.238281-4.964844 3.082031-2.289063 6.328125-4.363282 9.570312-6.425782 5.917969-21.34375 24.101563-37.3125 46.039063-40.496093v-16.136719c-32.480469 3.648438-59.121094 29.074219-63.488281 62.050781zm0 0" fill="#8cc152"/><path d="m146.941406 147.230469c-26.664062-26.09375-61.386718-41.0625-98.425781-42.984375v151.746094h55.847656c0-1.28125 0-2.640626.089844-3.921876.480469-19.679687 4.480469-38.476562 11.359375-55.757812 4.320312-10.640625 9.679688-20.800781 16.078125-30.167969 4.519531-6.6875 9.707031-12.886719 15.195313-18.824219-.042969-.03125-.105469-.046874-.144532-.089843zm0 0" fill="#8cc152"/><path d="m48.515625 120.238281v16c29.480469 1.921875 56.839844 14.28125 77.738281 35.539063.46875.480468 1.046875.734375 1.582032 1.070312 1.359374-2.222656 2.574218-4.550781 4.046874-6.703125 1.503907-2.222656 3.175782-4.335937 4.824219-6.464843-23.800781-23.769532-54.816406-37.519532-88.191406-39.441407zm0 0" fill="#a0d468"/><path d="m48.515625 152.304688v16c23.992187 2.152343 45.9375 13.832031 61.097656 32.933593.964844 1.226563 2.253907 1.953125 3.621094 2.441407.839844-2.464844 1.609375-4.960938 2.570313-7.367188 1.101562-2.71875 2.480468-5.304688 3.710937-7.960938-18.078125-21.144531-43.398437-33.953124-71-36.046874zm0 0" fill="#a0d468"/><path d="m80.707031 255.992188c0-19.433594-13.847656-35.671876-32.183593-39.390626v16.65625c9.402343 3.316407 16.183593 12.199219 16.183593 22.71875v.015626zm0 0" fill="#a0d468"/><path d="m48.515625 184.320312v16.167969c27.160156 3.894531 48.128906 27.265625 48.128906 55.488281v.015626h7.71875c0-1.28125 0-2.640626.089844-3.921876.191406-8.214843 1.152344-16.238281 2.527344-24.109374-9.960938-23.546876-32.097657-40.714844-58.464844-43.640626zm0 0" fill="#a0d468"/><path d="m240.546875 104.257812c-80.160156 4.191407-144.125 70.535157-144.125 151.71875h144.117187v-151.71875zm0 0" fill="#a0d468"/><path d="m240.546875 136.375v-16.015625c-71.3125 4.183594-128.125 63.265625-128.125 135.617187h16c0-63.519531 49.644531-115.441406 112.125-119.601562zm0 0" fill="#8cc152"/><path d="m240.546875 168.414062v-16.023437c-53.664063 4.128906-96.125 48.882813-96.125 103.585937h16c0-45.871093 35.300781-83.480468 80.125-87.5625zm0 0" fill="#8cc152"/><path d="m240.546875 200.511719v-16.0625c-36 4.007812-64.125 34.472656-64.125 71.519531h16c0-28.207031 20.964844-51.554688 48.125-55.457031zm0 0" fill="#8cc152"/><path d="m240.546875 233.328125v-16.375c-18.285156 3.734375-32.183594 19.648437-32.183594 39.023437h16c0-10.511718 6.785157-19.351562 16.183594-22.648437zm0 0" fill="#8cc152"/><g fill="#ed5565"><path d="m280.636719 479.984375h-272.144531c-4.425782 0-8-3.578125-8-8 0-4.425781 3.574218-8 8-8h272.144531c4.421875 0 8 3.574219 8 8 0 4.421875-3.578125 8-8 8zm0 0"/><path d="m32.546875 311.984375c-2.046875 0-4.09375-.785156-5.65625-2.34375-3.125-3.128906-3.125-8.183594 0-11.3125l16-16c3.128906-3.128906 8.183594-3.128906 11.3125 0s3.128906 8.183594 0 11.3125l-16 16c-1.558594 1.558594-3.605469 2.34375-5.65625 2.34375zm0 0"/><path d="m64.546875 311.984375c-2.046875 0-4.09375-.785156-5.65625-2.34375l-16-16c-3.125-3.128906-3.125-8.183594 0-11.3125 3.128906-3.128906 8.183594-3.128906 11.3125 0l16 16c3.128906 3.128906 3.128906 8.183594 0 11.3125-1.558594 1.558594-3.605469 2.34375-5.65625 2.34375zm0 0"/><path d="m64.546875 311.984375c-2.046875 0-4.09375-.785156-5.65625-2.34375-3.125-3.128906-3.125-8.183594 0-11.3125l16-16c3.128906-3.128906 8.183594-3.128906 11.3125 0s3.128906 8.183594 0 11.3125l-16 16c-1.558594 1.558594-3.605469 2.34375-5.65625 2.34375zm0 0"/><path d="m96.546875 311.984375c-2.046875 0-4.09375-.785156-5.65625-2.34375l-16-16c-3.125-3.128906-3.125-8.183594 0-11.3125 3.128906-3.128906 8.183594-3.128906 11.3125 0l16 16c3.128906 3.128906 3.128906 8.183594 0 11.3125-1.558594 1.558594-3.605469 2.34375-5.65625 2.34375zm0 0"/><path d="m96.546875 311.984375c-2.046875 0-4.09375-.785156-5.65625-2.34375-3.125-3.128906-3.125-8.183594 0-11.3125l16-16c3.128906-3.128906 8.183594-3.128906 11.3125 0s3.128906 8.183594 0 11.3125l-16 16c-1.558594 1.558594-3.605469 2.34375-5.65625 2.34375zm0 0"/><path d="m128.546875 311.984375c-2.046875 0-4.09375-.785156-5.65625-2.34375l-16-16c-3.125-3.128906-3.125-8.183594 0-11.3125 3.128906-3.128906 8.183594-3.128906 11.3125 0l16 16c3.128906 3.128906 3.128906 8.183594 0 11.3125-1.558594 1.558594-3.605469 2.34375-5.65625 2.34375zm0 0"/><path d="m128.546875 311.984375c-2.046875 0-4.09375-.785156-5.65625-2.34375-3.125-3.128906-3.125-8.183594 0-11.3125l16-16c3.128906-3.128906 8.183594-3.128906 11.3125 0s3.128906 8.183594 0 11.3125l-16 16c-1.558594 1.558594-3.605469 2.34375-5.65625 2.34375zm0 0"/><path d="m160.546875 311.984375c-2.046875 0-4.09375-.785156-5.65625-2.34375l-16-16c-3.125-3.128906-3.125-8.183594 0-11.3125 3.128906-3.128906 8.183594-3.128906 11.3125 0l16 16c3.128906 3.128906 3.128906 8.183594 0 11.3125-1.558594 1.558594-3.605469 2.34375-5.65625 2.34375zm0 0"/><path d="m160.546875 311.984375c-2.046875 0-4.09375-.785156-5.65625-2.34375-3.125-3.128906-3.125-8.183594 0-11.3125l16-16c3.128906-3.128906 8.183594-3.128906 11.3125 0s3.128906 8.183594 0 11.3125l-16 16c-1.558594 1.558594-3.605469 2.34375-5.65625 2.34375zm0 0"/><path d="m192.546875 311.984375c-2.046875 0-4.09375-.785156-5.65625-2.34375l-16-16c-3.125-3.128906-3.125-8.183594 0-11.3125 3.128906-3.128906 8.183594-3.128906 11.3125 0l16 16c3.128906 3.128906 3.128906 8.183594 0 11.3125-1.558594 1.558594-3.605469 2.34375-5.65625 2.34375zm0 0"/><path d="m192.546875 311.984375c-2.046875 0-4.09375-.785156-5.65625-2.34375-3.125-3.128906-3.125-8.183594 0-11.3125l16-16c3.128906-3.128906 8.183594-3.128906 11.3125 0s3.128906 8.183594 0 11.3125l-16 16c-1.558594 1.558594-3.605469 2.34375-5.65625 2.34375zm0 0"/><path d="m224.546875 311.984375c-2.046875 0-4.09375-.785156-5.65625-2.34375l-16-16c-3.125-3.128906-3.125-8.183594 0-11.3125 3.128906-3.128906 8.183594-3.128906 11.3125 0l16 16c3.128906 3.128906 3.128906 8.183594 0 11.3125-1.558594 1.558594-3.605469 2.34375-5.65625 2.34375zm0 0"/><path d="m224.546875 311.984375c-2.046875 0-4.09375-.785156-5.65625-2.34375-3.125-3.128906-3.125-8.183594 0-11.3125l16-16c3.128906-3.128906 8.183594-3.128906 11.3125 0s3.128906 8.183594 0 11.3125l-16 16c-1.558594 1.558594-3.605469 2.34375-5.65625 2.34375zm0 0"/><path d="m256.546875 311.984375c-2.046875 0-4.09375-.785156-5.65625-2.34375l-16-16c-3.125-3.128906-3.125-8.183594 0-11.3125 3.128906-3.128906 8.183594-3.128906 11.3125 0l16 16c3.128906 3.128906 3.128906 8.183594 0 11.3125-1.558594 1.558594-3.605469 2.34375-5.65625 2.34375zm0 0"/></g></svg>