<?xml version="1.0" encoding="iso-8859-1"?>
<!-- Generator: Adobe Illustrator 19.0.0, SVG Export Plug-In . SVG Version: 6.00 Build 0)  -->
<svg xmlns="http://www.w3.org/2000/svg" xmlns:xlink="http://www.w3.org/1999/xlink" version="1.1" id="Layer_1" x="0px" y="0px" viewBox="0 0 512 512" style="enable-background:new 0 0 512 512;" xml:space="preserve" width="512" height="512">
<g>
	
		<rect x="370.919" y="268.061" transform="matrix(0.8661 0.4999 -0.4999 0.8661 193.9585 -157.9472)" style="fill:#00AB5E;" width="41.759" height="30.005"/>
	<rect x="226" style="fill:#5BC980;" width="30" height="46"/>
	<rect x="241" style="fill:#00AB5E;" width="15" height="46"/>
	
		<rect x="132.255" y="31.591" transform="matrix(0.5 0.8661 -0.8661 0.5 117.73 -110.7163)" style="fill:#5BC980;" width="44.975" height="30.005"/>
	
		<rect x="69.106" y="94.74" transform="matrix(0.8661 0.5 -0.5 0.8661 67.1356 -31.0927)" style="fill:#5BC980;" width="44.975" height="30.005"/>
	<rect x="46" y="181" style="fill:#5BC980;" width="45" height="30"/>
	
		<rect x="75.199" y="262.184" transform="matrix(0.4999 0.8661 -0.8661 0.4999 290.261 63.4331)" style="fill:#5BC980;" width="30.005" height="41.759"/>
	<path style="fill:#7FE881;" d="M406,196c0,58.5-31.199,123.9-77.701,161.7H153.701C105.399,318.399,76,251.499,76,196   c0-91.201,73.801-165,165-165C330.399,31,406,103.599,406,196z"/>
	<path style="fill:#5BC980;" d="M406,196c0,58.5-31.199,123.9-77.701,161.7H241V31C330.399,31,406,103.599,406,196z"/>
	<rect x="196" y="91" style="fill:#5BC980;" width="30" height="60"/>
	<rect x="136" y="151" style="fill:#5BC980;" width="30" height="60"/>
	<rect x="226" y="181" style="fill:#5BC980;" width="30" height="60"/>
	<rect x="286" y="241" style="fill:#00AB5E;" width="30" height="60"/>
	<rect x="166" y="241" style="fill:#5BC980;" width="30" height="60"/>
	<rect x="241" y="181" style="fill:#00AB5E;" width="15" height="60"/>
	<g>
		<path style="fill:#FF641A;" d="M443.8,95.799c-3.001-1.5-6.301-2.999-9.6-3.9c0.899-3.3,1.199-6.899,1.199-10.199    c0.3-15.901-7.8-30-21.899-38.701c-13.801-7.798-30.3-7.5-44.099,0.3c-3.001,1.8-5.7,3.9-8.401,6.301    c-2.401-2.401-5.099-4.501-8.101-6.301c-13.799-7.8-30-8.099-44.399,0c-13.801,7.8-21.899,22.2-21.899,38.101    c0,3.6,0.599,7.2,1.199,10.499c-3.3,0.901-6.599,2.401-9.6,4.2c-13.799,8.101-22.2,22.2-22.2,39c0.3,15.3,8.401,29.401,22.2,37.2    c3.001,1.8,6.301,3.001,9.6,4.2c-0.899,3.3-1.199,6.601-1.199,10.201c0,15.899,7.8,30,22.2,38.399c13.5,7.8,30,7.8,43.799-0.3    c3.001-1.8,5.7-3.9,8.401-5.999c2.401,2.098,5.099,4.199,8.401,5.999c6.899,4.2,14.399,6.301,21.899,6.301s15.3-2.1,22.2-6    c13.801-8.099,21.899-22.2,21.899-38.399c0-3.301-0.3-6.901-1.199-10.201c3.3-1.199,6.599-2.401,9.6-4.2    c13.799-8.099,22.2-22.2,22.2-39C465.7,117.7,457.599,103.9,443.8,95.799z"/>
	</g>
	<path style="fill:#F03800;" d="M466,133.299c0,16.8-8.401,30.901-22.2,39c-3.001,1.8-6.301,3.001-9.6,4.2   c0.899,3.3,1.199,6.899,1.199,10.201c0,16.199-8.099,30.3-21.899,38.399c-6.899,3.9-14.7,6-22.2,6s-15-2.1-21.899-6.301   c-3.301-1.8-6-3.9-8.401-5.999V49.6c2.701-2.401,5.4-4.501,8.401-6.301c13.799-7.8,30.298-8.099,44.099-0.3   c14.099,8.701,22.2,22.8,21.899,38.701c0,3.3-0.3,6.899-1.199,10.199c3.3,0.901,6.599,2.401,9.6,3.9   C457.599,103.9,465.7,117.7,466,133.299z"/>
	<path style="fill:#FFDA2D;" d="M406,136c0,24.899-20.099,45-45,45s-45-20.101-45-45c0-24.901,20.099-45,45-45S406,111.099,406,136z   "/>
	<path style="fill:#FDBF00;" d="M406,136c0,24.899-20.099,45-45,45V91C385.901,91,406,111.099,406,136z"/>
	<g>
		<polygon style="fill:#714C2F;" points="376.3,346 361.3,421 316,451 156.099,451 120.7,421 105.7,346   "/>
		<polygon style="fill:#523522;" points="376.3,346 361.3,421 316,451 241,451 241,346   "/>
		<rect x="76" y="331" style="fill:#895D3C;" width="330" height="30"/>
		<polygon style="fill:#895D3C;" points="361.3,421 343.299,512 138.701,512 120.7,421   "/>
		<polygon style="fill:#714C2F;" points="241,421 361.3,421 343.299,512 241,512   "/>
		<rect x="241" y="331" style="fill:#714C2F;" width="165" height="30"/>
	</g>
</g>















</svg>
