<svg xmlns="http://www.w3.org/2000/svg" height="512pt" version="1.1" viewBox="-110 0 512 512.00055" width="512pt">
<g id="surface1">
<path d="M 112.707031 176.609375 C 113.367188 276.492188 146.78125 357.246094 146.78125 357.246094 C 146.78125 357.246094 179.125 276.058594 178.460938 176.175781 C 177.90625 92.414062 154.320312 22.109375 146.71875 1.589844 C 145.925781 -0.546875 142.894531 -0.527344 142.132812 1.621094 C 134.804688 22.238281 112.148438 92.851562 112.707031 176.609375 Z M 112.707031 176.609375 " style=" stroke:none;fill-rule:nonzero;fill:rgb(36.862745%,61.960784%,45.098039%);fill-opacity:1;" />
<path d="M 125.726562 167.054688 C 154.09375 262.824219 145.566406 349.800781 145.566406 349.800781 C 145.566406 349.800781 91.042969 281.503906 62.671875 185.730469 C 38.882812 105.417969 41.039062 31.292969 42.355469 9.453125 C 42.492188 7.179688 45.398438 6.316406 46.753906 8.152344 C 59.753906 25.75 101.933594 86.742188 125.726562 167.054688 Z M 125.726562 167.054688 " style=" stroke:none;fill-rule:nonzero;fill:rgb(36.078431%,70.980392%,48.627451%);fill-opacity:1;" />
<path d="M 93.761719 185.730469 C 78.019531 132.585938 73.640625 82.160156 72.859375 47.789062 C 61.566406 28.8125 51.890625 15.105469 46.757812 8.15625 C 45.402344 6.320312 42.492188 7.175781 42.355469 9.453125 C 41.039062 31.292969 38.882812 105.421875 62.675781 185.730469 C 91.042969 281.503906 145.570312 349.800781 145.570312 349.800781 C 145.570312 349.800781 147.257812 332.5625 146.628906 304.996094 C 129.300781 275.875 108.164062 234.347656 93.761719 185.730469 Z M 93.761719 185.730469 " style=" stroke:none;fill-rule:nonzero;fill:rgb(36.862745%,61.960784%,45.098039%);fill-opacity:1;" />
<path d="M 165.445312 167.054688 C 137.074219 262.824219 145.601562 349.800781 145.601562 349.800781 C 145.601562 349.800781 200.125 281.503906 228.496094 185.730469 C 252.285156 105.417969 250.128906 31.292969 248.8125 9.453125 C 248.675781 7.179688 245.769531 6.316406 244.414062 8.152344 C 231.417969 25.75 189.234375 86.742188 165.445312 167.054688 Z M 165.445312 167.054688 " style=" stroke:none;fill-rule:nonzero;fill:rgb(36.078431%,70.980392%,48.627451%);fill-opacity:1;" />
<path d="M 280.574219 283.265625 L 236.386719 500.882812 C 235.074219 507.351562 229.386719 512 222.785156 512 L 68.382812 512 C 61.78125 512 56.09375 507.351562 54.78125 500.882812 L 12.9375 294.792969 " style=" stroke:none;fill-rule:nonzero;fill:rgb(58.431373%,80%,76.078431%);fill-opacity:1;" />
<path d="M 13.070312 295.449219 L 54.78125 500.882812 C 56.09375 507.351562 61.78125 512 68.382812 512 L 88.125 512 L 42.886719 289.199219 Z M 13.070312 295.449219 " style=" stroke:none;fill-rule:nonzero;fill:rgb(43.529412%,67.843137%,63.137255%);fill-opacity:1;" />
<path d="M 277.5 299.773438 L 13.671875 299.773438 C 6.121094 299.773438 0 293.652344 0 286.101562 L 0 253.578125 C 0 246.027344 6.121094 239.90625 13.671875 239.90625 L 277.5 239.90625 C 285.050781 239.90625 291.167969 246.027344 291.167969 253.578125 L 291.167969 286.101562 C 291.167969 293.652344 285.046875 299.773438 277.5 299.773438 Z M 277.5 299.773438 " style=" stroke:none;fill-rule:nonzero;fill:rgb(100%,80.392157%,41.960784%);fill-opacity:1;" />
<path d="M 0 253.578125 L 0 286.101562 C 0 293.652344 6.121094 299.773438 13.671875 299.773438 L 31.085938 299.773438 L 31.085938 239.90625 L 13.671875 239.90625 C 6.121094 239.90625 0 246.027344 0 253.578125 Z M 0 253.578125 " style=" stroke:none;fill-rule:nonzero;fill:rgb(100%,71.372549%,29.803922%);fill-opacity:1;" />
<path d="M 184.628906 378.128906 C 195.273438 357.839844 182.046875 344.613281 161.757812 355.257812 C 154.9375 333.382812 136.234375 333.382812 129.410156 355.257812 C 109.125 344.613281 95.898438 357.839844 106.539062 378.128906 C 84.667969 384.949219 84.667969 403.652344 106.539062 410.472656 C 95.898438 430.761719 109.121094 443.988281 129.410156 433.34375 C 136.234375 455.21875 154.9375 455.21875 161.757812 433.34375 C 182.046875 443.988281 195.273438 430.761719 184.628906 410.472656 C 206.5 403.652344 206.5 384.949219 184.628906 378.128906 Z M 184.628906 378.128906 " style=" stroke:none;fill-rule:nonzero;fill:rgb(95.686275%,95.294118%,83.529412%);fill-opacity:1;" />
<path d="M 163.148438 394.300781 C 163.148438 404 155.285156 411.863281 145.585938 411.863281 C 135.886719 411.863281 128.023438 404 128.023438 394.300781 C 128.023438 384.601562 135.886719 376.738281 145.585938 376.738281 C 155.285156 376.738281 163.148438 384.601562 163.148438 394.300781 Z M 163.148438 394.300781 " style=" stroke:none;fill-rule:nonzero;fill:rgb(100%,80.392157%,41.960784%);fill-opacity:1;" />
<path d="M 163.148438 394.300781 C 163.148438 404 155.285156 411.863281 145.585938 411.863281 C 135.886719 411.863281 128.023438 404 128.023438 394.300781 C 128.023438 384.601562 135.886719 376.738281 145.585938 376.738281 C 155.285156 376.738281 163.148438 384.601562 163.148438 394.300781 Z M 163.148438 394.300781 " style=" stroke:none;fill-rule:nonzero;fill:rgb(100%,80.392157%,41.960784%);fill-opacity:1;" />
</g>
</svg>