<svg id="Layer_1" enable-background="new 0 0 512 512" height="512" viewBox="0 0 512 512" width="512" xmlns="http://www.w3.org/2000/svg"><g><path d="m432.733 512h-353.466c-8.284 0-15-6.716-15-15v-226h-49.267c-6.067 0-11.536-3.655-13.858-9.26-2.321-5.605-1.038-12.057 3.252-16.347l241-241c5.857-5.858 15.355-5.858 21.213 0l241 241c4.29 4.29 5.573 10.742 3.252 16.347-2.322 5.605-7.791 9.26-13.858 9.26h-49.267v226c-.001 8.284-6.717 15-15.001 15z" fill="#334a5e"/><path d="m432.733 512c8.284 0 15-6.716 15-15v-226h49.267c6.067 0 11.536-3.655 13.858-9.26 2.321-5.605 1.038-12.057-3.252-16.347l-241-241c-2.928-2.928-6.767-4.393-10.606-4.393v512z" fill="#1f2a4d"/><path d="m336.333 224.933h-80.333c-52.566 0-95.333 42.766-95.333 95.333v80.334c0 8.284 6.716 15 15 15l80.333-.001c52.566 0 95.333-42.766 95.333-95.333v-80.333c0-8.284-6.716-15-15-15z" fill="#d9ff7d"/><path d="m351.333 320.266v-80.333c0-8.284-6.716-15-15-15h-80.333v190.666c52.567 0 95.333-42.766 95.333-95.333z" fill="#97db4f"/><path d="m266.607 309.66c-5.857-5.858-15.355-5.858-21.213 0l-112.467 112.467c-5.858 5.858-5.858 15.355 0 21.213 5.857 5.858 15.355 5.858 21.213 0l112.467-112.467c5.858-5.858 5.858-15.355 0-21.213z" fill="#66a182"/></g></svg>