<svg viewBox="0 0 512 512" xmlns="http://www.w3.org/2000/svg"><path d="m511.914062 256c0-141.386719-114.59375-256-255.957031-256-141.359375 0-255.957031 114.613281-255.957031 256s114.597656 256 255.957031 256c141.363281 0 255.957031-114.613281 255.957031-256zm0 0" fill="#66d15f"/><path d="m417.089844 57.101562c35.691406 44.007813 57.09375 100.078126 57.09375 161.160157 0 141.382812-114.597656 256-255.957032 256-61.070312 0-117.132812-21.40625-161.132812-57.105469 46.929688 57.855469 118.570312 94.84375 198.863281 94.84375 141.363281 0 255.957031-114.613281 255.957031-256 0-80.304688-36.980468-151.960938-94.824218-198.898438zm0 0" fill="#53bc77"/><path d="m326.53125 306.542969-26.300781 19.808593c-4.925781 3.710938-11.679688 3.914063-16.792969.460938-37.472656-25.328125-65.566406-62.644531-79.546875-105.664062-1.90625-5.867188.15625-12.300782 5.082031-16.011719l26.511719-19.964844c1.941406-1.464844 2.96875-3.855469 2.660156-6.269531-.941406-7.371094-1.375-14.875-1.269531-22.464844.15625-11.21875-8.589844-21.675781-19.699219-23.242188l-23.097656-3.253906c-27.523437-3.882812-48.683594 15.652344-47.070313 43.40625 1.375 23.59375 6.078126 46.488282 13.695313 68.140625 17.164063 48.769531 49.140625 91.238281 91.257813 121.214844 18.699218 13.308594 39.398437 24.152344 61.6875 31.992187 26.222656 9.226563 50.839843-5.714843 54.71875-33.246093l3.1875-22.621094c1.570312-11.140625-5.96875-22.878906-16.820313-25.839844-7.238281-1.972656-14.25-4.425781-21-7.324219-2.378906-1.027343-5.128906-.683593-7.203125.878907zm0 0" fill="#d4ffdf"/><g fill="#b1ffc5"><path d="m190.257812 133.195312c11.105469 1.566407 19.855469 12.023438 19.699219 23.242188-.105469 7.589844.328125 15.089844 1.269531 22.464844.308594 2.414062-.71875 4.804687-2.664062 6.269531l-26.507812 19.960937c-4.925782 3.714844-6.988282 10.148438-5.082032 16.015626 13.980469 43.015624 42.074219 80.332031 79.546875 105.660156 5.109375 3.457031 11.863281 3.25 16.789063-.460938l4.574218-3.445312c-34.691406-25.183594-60.707031-60.890625-73.992187-101.753906-1.90625-5.867188.15625-12.304688 5.085937-16.015626l26.507813-19.960937c1.945313-1.464844 2.972656-3.855469 2.664063-6.269531-.945313-7.375-1.378907-14.875-1.273438-22.464844.15625-11.222656-8.589844-21.679688-19.699219-23.242188l-23.097656-3.257812c-6.734375-.949219-13.082031-.488281-18.8125 1.144531zm0 0"/><path d="m354.734375 312.988281c-7.238281-1.972656-14.246094-4.429687-20.996094-7.328125-2.382812-1.023437-5.132812-.679687-7.207031.882813l-5.75 4.332031c2.320312.75 4.660156 1.46875 7.035156 2.113281 10.851563 2.957031 18.390625 14.699219 16.820313 25.839844l-3.1875 22.621094c-2.378907 16.898437-12.582031 29.039062-26.164063 33.777343 25.601563 8.050782 49.289063-6.820312 53.085938-33.777343l3.1875-22.621094c1.570312-11.140625-5.96875-22.882813-16.824219-25.839844zm0 0"/></g></svg>