<svg id="Capa_1" enable-background="new 0 0 512.107 512.107" height="512" viewBox="0 0 512.107 512.107" width="512" xmlns="http://www.w3.org/2000/svg"><g><g><path d="m371.872 156.489 9.949-32.289c5.411-17.56 3.626-36.55-4.961-52.795-14.262-26.978-44.492-41.453-74.451-35.648l-4.059.786-32.962 16.77-47.567-16.77-4.059-.786c-29.959-5.805-60.189 8.67-74.451 35.648-8.588 16.245-10.372 35.235-4.961 52.795l9.949 32.289 35.542 107.692h158.56z" fill="#ade194"/><g><path d="m231.189 253.311-35.542-107.692-9.949-32.289c-5.411-17.56-3.626-36.551 4.961-52.795 5.423-10.258 13.174-18.71 22.321-24.925-29.696-5.397-59.533 9.057-73.668 35.795-8.588 16.245-10.372 35.235-4.961 52.795l9.949 32.289 35.542 107.692h158.56l3.378-10.87z" fill="#97da7b"/></g><path d="m305.857 156.489c15.43-44.762 8.464-94.208-18.732-132.965l-.142-.202c-14.803-21.095-46.057-21.095-60.86 0l-.142.202c-27.196 38.757-34.162 88.203-18.732 132.965l24.308 74.749h56.415z" fill="#97da7b"/><g><path d="m449.154 214.216-32.56-54.39c-1.24-2.07-3.47-3.34-5.88-3.34h-254.761l-50.703 48.694-40.046 131.507 66.074 117.444 136.182 50.475h17.063c149.031 0 241.161-162.5 164.631-290.39z" fill="#f9f3f1"/><path d="m148.469 214.216 32.56-54.39c1.24-2.07 3.47-3.34 5.88-3.34h-85.516c-2.41 0-4.64 1.27-5.88 3.34l-32.56 54.39c-76.53 127.89 15.6 290.39 164.63 290.39h56.94c4.824 0 9.587-.174 14.288-.508-140.528-9.979-224.394-166.132-150.342-289.882z" fill="#f3eae6"/><g id="XMLID_257_"><g><path d="m416.594 159.826 22.81 38.11h-366.7l22.81-38.11c1.24-2.07 3.47-3.34 5.88-3.34h309.32c2.41 0 4.64 1.27 5.88 3.34z" fill="#f9f3f1"/></g></g><g id="XMLID_259_"><g><path d="m184.924 499.976 250.04-68.1c-34.2 43.46-87.2 72.73-150.44 72.73h-56.94c-14.82 0-29.07-1.61-42.66-4.63z" fill="#f3eae6"/><path d="m427.414 378.176 41.03-10.53c-7.05 23.3-18.45 45.13-33.48 64.23l-250.04 68.1c-30.3-6.73-57.26-20.5-79.65-39.16l208.54-53.5h.02z" fill="#efe2dd"/><path d="m313.814 407.316-208.54 53.5h-.01c-20.45-17.03-37.08-38.13-48.97-61.66z" fill="#f3eae6"/><path d="m427.414 378.176-113.58 29.14h-.02l-257.52-8.16h-.01c-11.96-23.65-19.13-49.76-20.58-76.65z" fill="#f9f3f1"/></g></g></g><path d="m186.909 156.486h-85.516c-2.41 0-4.64 1.27-5.88 3.34l-22.81 38.11h85.512l22.814-38.11c1.24-2.07 3.471-3.34 5.88-3.34z" fill="#f3eae6"/><path d="m143.22 401.91c-10.922-20.774-18.116-43.526-20.933-67.099l-86.583-12.305c1.45 26.89 8.62 53 20.58 76.65h.01z" fill="#f3eae6"/><path d="m143.206 401.901-86.927-2.754c11.89 23.53 28.52 44.63 48.97 61.66h.01l67.336-17.275c-11.587-12.545-21.469-26.567-29.389-41.631z" fill="#efe2dd"/><path d="m172.61 443.541-67.361 17.265c22.39 18.66 49.374 32.44 79.674 39.17l47.348-12.896c-22.91-10.601-43.042-25.548-59.661-43.539z" fill="#e1d3ce"/><path d="m232.272 487.08-47.348 12.896c13.59 3.02 27.84 4.63 42.66 4.63h56.94c4.787 0 9.514-.175 14.18-.503-23.958-1.716-46.273-7.695-66.432-17.023z" fill="#efe2dd"/></g><g><path d="m455.586 210.369-32.555-54.397c-2.577-4.308-7.296-6.983-12.316-6.983h-28.685l6.958-22.58c.065-.211.116-.425.179-.636l1.738.348c.497.1.993.147 1.481.147 3.501 0 6.632-2.464 7.346-6.027.813-4.062-1.819-8.014-5.881-8.827l-1.788-.358c1.191-12.28-.601-24.632-5.31-36.165l3.364-1.657c3.716-1.83 5.244-6.326 3.413-10.042-1.83-3.716-6.327-5.244-10.042-3.413l-3.724 1.835c-4.92-7.513-11.052-14.036-18.196-19.356l.997-1.505c2.289-3.453 1.345-8.106-2.108-10.396-3.452-2.286-8.106-1.344-10.395 2.108l-1.35 2.037c-14.955-7.148-31.458-9.262-47.733-6.108l-1.588.308c-1.925-3.223-3.96-6.394-6.132-9.49l-.139-.197c-8.476-12.084-21.805-19.015-36.566-19.015s-28.09 6.931-36.565 19.009l-.146.207c-2.058 2.932-4 5.926-5.839 8.971-15.888-2.826-31.955-.661-46.545 6.314l-1.35-2.037c-2.289-3.452-6.942-4.398-10.395-2.107-3.453 2.288-4.396 6.942-2.108 10.395l.998 1.505c-7.144 5.321-13.276 11.844-18.196 19.356l-3.724-1.835c-3.716-1.832-8.212-.302-10.042 3.413-1.831 3.716-.302 8.212 3.414 10.042l3.365 1.657c-4.709 11.533-6.501 23.885-5.309 36.165l-1.788.358c-4.062.813-6.694 4.766-5.881 8.827.714 3.564 3.845 6.027 7.346 6.027.488 0 .984-.048 1.481-.147l1.737-.348c.063.212.114.425.179.636l6.958 22.58h-32.749c-5.02 0-9.739 2.676-12.315 6.982l-32.556 54.398c-37.348 62.405-38.23 137.434-2.362 200.7s100.698 101.039 173.426 101.039h56.932c72.728 0 137.561-37.771 173.429-101.038s34.985-138.295-2.363-200.7zm-85.357-135.46c7.712 14.591 9.284 31.311 4.424 47.082l-8.319 26.997h-50.363c9.612-35.495 6.235-73.299-9.18-106.363 25.885-3.762 51.1 8.944 63.438 32.284zm-228.71 47.081c-4.859-15.771-3.288-32.491 4.424-47.081 11.873-22.458 35.667-35.065 60.508-32.636-4.885 10.383-8.602 21.3-11.107 32.658-.892 4.045 1.664 8.047 5.709 8.939 4.043.891 8.047-1.663 8.939-5.709 4.011-18.187 11.456-35.12 22.125-50.326l.146-.207c5.632-8.024 14.486-12.628 24.291-12.628s18.659 4.604 24.294 12.634l.139.197c24.715 35.222 31.812 80.134 19.403 121.157h-87.681c-3.976-13.124-6-26.717-6.013-40.486-.004-4.14-3.361-7.493-7.5-7.493h-.007c-4.143.004-7.497 3.365-7.493 7.507.013 13.728 1.835 27.297 5.412 40.473h-47.271zm-72.126 96.082 7.56-12.632h263.382c4.142 0 7.5-3.357 7.5-7.5s-3.358-7.5-7.5-7.5h-254.406l15.831-26.452h308.588l15.831 26.452h-53.881c-4.142 0-7.5 3.357-7.5 7.5s3.358 7.5 7.5 7.5h62.858l7.56 12.632c26.518 44.311 33.133 95.499 19.771 143.365l-35.472 9.1-384.079-54.577c-.611-33.671 8.215-67.407 26.457-97.888zm-.187 188.995 74.038 2.346c.082.003.162.004.242.004 4.032 0 7.363-3.203 7.492-7.263.131-4.14-3.119-7.603-7.258-7.733l-82.695-2.621c-9.304-19.454-15.008-39.896-17.145-60.555l345.126 49.043-76.003 19.498-137.321-4.351c-4.138-.158-7.603 3.118-7.733 7.259-.131 4.14 3.119 7.603 7.259 7.733l85.727 2.716-153.823 39.461c-14.706-12.774-27.52-28.059-37.906-45.537zm158.382 90.04c-1.133 0-2.258-.035-3.387-.055l188.208-51.257c-33.721 32.73-78.858 51.312-127.89 51.312zm203.025-71.815-245.805 66.943c-22.725-5.292-43.94-14.806-62.764-27.975l334.822-85.895c-3.324 8.608-7.296 17.068-11.967 25.307-4.319 7.618-9.102 14.826-14.286 21.62z"/><path d="m258.086 49.036c4.142 0 7.5-3.357 7.5-7.5v-4.929c0-4.143-3.358-7.5-7.5-7.5s-7.5 3.357-7.5 7.5v4.929c0 4.143 3.358 7.5 7.5 7.5z"/><path d="m258.086 93.75c4.142 0 7.5-3.357 7.5-7.5v-4.929c0-4.143-3.358-7.5-7.5-7.5s-7.5 3.357-7.5 7.5v4.929c0 4.143 3.358 7.5 7.5 7.5z"/><path d="m258.086 138.464c4.142 0 7.5-3.357 7.5-7.5v-4.929c0-4.143-3.358-7.5-7.5-7.5s-7.5 3.357-7.5 7.5v4.929c0 4.142 3.358 7.5 7.5 7.5z"/></g></g></svg>