<svg id="Capa_1" enable-background="new 0 0 512 512" height="512" viewBox="0 0 512 512" width="512" xmlns="http://www.w3.org/2000/svg"><g><g><path d="m363.56 251.749c-45.963 19.038-82.631 51.025-107.56 89.974 45.168 9.913 93.715 6.603 139.678-12.436 34.331-14.22 63.476-35.664 86.417-61.837 10.95-12.493 2.874-31.991-13.703-33.081-34.729-2.286-70.501 3.16-104.832 17.38z" fill="#60d9a7"/></g><g><path d="m116.322 329.287c45.963 19.038 94.509 22.349 139.678 12.436-24.929-38.948-61.598-70.935-107.56-89.974-34.33-14.22-70.103-19.666-104.832-17.381-16.577 1.091-24.653 20.588-13.703 33.081 22.941 26.174 52.087 47.618 86.417 61.838z" fill="#60d9a7"/></g><g><path d="m100.151 260.29c44.112 44.112 98.764 71.243 155.849 81.433-10.19-57.084-37.321-111.737-81.433-155.848-35.67-35.67-78.232-60.237-123.399-73.721-15.122-4.515-29.252 9.615-24.737 24.737 13.484 45.166 38.051 87.729 73.72 123.399z" fill="#00a45b"/></g><g><path d="m337.433 185.874c-44.112 44.112-71.243 98.764-81.433 155.849 57.084-10.19 111.737-37.321 155.848-81.433 35.67-35.67 60.237-78.232 73.721-123.399 4.515-15.122-9.615-29.252-24.737-24.737-45.167 13.484-87.729 38.05-123.399 73.72z" fill="#00a45b"/></g><g><path d="m135.136 197.234c25.574 61.743 68.543 111.001 120.864 144.489 13.317-60.676 8.869-125.89-16.705-187.633-21.037-50.788-53.843-93.128-93.942-125.192-12.326-9.856-30.568-2.3-32.314 13.385-5.682 51.027 1.06 104.163 22.097 154.951z" fill="#00c680"/></g><g><path d="m272.705 154.09c-25.575 61.743-30.022 126.957-16.705 187.633 52.32-33.488 95.289-82.746 120.864-144.489 21.037-50.788 27.779-103.924 22.097-154.952-1.746-15.685-19.988-23.241-32.314-13.385-40.099 32.065-72.905 74.405-93.942 125.193z" fill="#00c680"/></g><g><path d="m199.629 161.98c0 66.83 20.848 128.782 56.371 179.743 35.522-50.961 56.37-112.913 56.37-179.743 0-54.972-14.106-106.644-38.882-151.613-7.616-13.822-27.361-13.822-34.976 0-24.777 44.969-38.883 96.64-38.883 151.613z" fill="#60d9a7"/></g><g><g><path d="m171.063 134.151c-4.143 0-7.5-3.357-7.5-7.5v-12.362c0-4.143 3.357-7.5 7.5-7.5s7.5 3.357 7.5 7.5v12.362c0 4.143-3.358 7.5-7.5 7.5z" fill="#303746"/></g><g><path d="m340.937 134.151c-4.143 0-7.5-3.357-7.5-7.5v-12.362c0-4.143 3.357-7.5 7.5-7.5s7.5 3.357 7.5 7.5v12.362c0 4.143-3.358 7.5-7.5 7.5z" fill="#303746"/></g><g><path d="m256 141.511c-8.668 0-16.911-3.754-22.615-10.3-2.722-3.123-2.396-7.86.727-10.582 3.122-2.721 7.859-2.396 10.582.727 2.854 3.276 6.976 5.155 11.307 5.155s8.452-1.879 11.307-5.155c2.723-3.122 7.457-3.447 10.582-.727 3.122 2.722 3.448 7.459.727 10.582-5.706 6.546-13.949 10.3-22.617 10.3z" fill="#303746"/></g></g><g><path d="m450.169 476.428 20.69-149.861h-429.718l20.69 149.861c2.815 20.387 20.24 35.572 40.82 35.572h306.698c20.58 0 38.005-15.185 40.82-35.572z" fill="#03c8de"/></g><g><path d="m185.453 476.428-20.69-149.861h-123.622l20.69 149.861c2.815 20.387 20.24 35.572 40.82 35.572h123.622c-20.581 0-38.006-15.185-40.82-35.572z" fill="#02a7c3"/></g><g><path d="m491.396 347.171h-470.792c-11.379 0-20.604-9.225-20.604-20.604 0-11.379 9.225-20.604 20.604-20.604h470.793c11.379 0 20.604 9.225 20.604 20.604-.001 11.379-9.226 20.604-20.605 20.604z" fill="#80d8e7"/></g><g><path d="m103.018 326.567c0-11.379 9.225-20.604 20.604-20.604h-103.018c-11.379.001-20.604 9.225-20.604 20.604s9.225 20.604 20.604 20.604h103.018c-11.379 0-20.604-9.224-20.604-20.604z" fill="#03c8de"/></g><g><path d="m470.793 429.586h-429.586c-11.379 0-20.604-9.225-20.604-20.604 0-11.379 9.225-20.604 20.604-20.604h429.586c11.379 0 20.604 9.225 20.604 20.604-.001 11.379-9.225 20.604-20.604 20.604z" fill="#80d8e7"/></g><g><path d="m123.622 408.982c0-11.379 9.225-20.604 20.604-20.604h-103.019c-11.379 0-20.604 9.225-20.604 20.604s9.225 20.604 20.604 20.604h103.018c-11.379 0-20.603-9.225-20.603-20.604z" fill="#03c8de"/></g></g></svg>